# xmcd
#
# Track frame offsets: 
#        150
#        17137
#        31942
#        49020
#        65032
#        79840
#        94587
#        112230
#        129020
#        143130
#        157462
#        171200
#        187695
#
# Disc length: 2672 seconds
#
# Revision: 2
# Processed by: cddbd v1.5.2PL0 Copyright (c) Steve Scherf et al.
# Submitted via: ExactAudioCopy v0.99pb4
#
DISCID=ac0a6e0d
DTITLE=Yölintu - Pienen pojan haaveet
DYEAR=2000
DGENRE=Iskelmä
TTITLE0=Liian suuri city
TTITLE1=Sanaton lempi
TTITLE2=Mies kylmän maan
TTITLE3=Pienen pojan haaveet
TTITLE4=Melkein halvaannuin
TTITLE5=Sulle mun kultani
TTITLE6=Kun sua mä kaipaan
TTITLE7=Kai tulla saan
TTITLE8=Yön hetket
TTITLE9=Useampi nainen
TTITLE10=Kun olit mennyt
TTITLE11=Haamu kipua
TTITLE12=Sinun kanssasi
EXTD=
EXTT0=
EXTT1=
EXTT2=
EXTT3=
EXTT4=
EXTT5=
EXTT6=
EXTT7=
EXTT8=
EXTT9=
EXTT10=
EXTT11=
EXTT12=
PLAYORDER=
